<svg id="Layer_1" height="512" viewBox="0 0 128 128" width="512" xmlns="http://www.w3.org/2000/svg" data-name="Layer 1"><path d="m6.5 64.117c0-12.952.389-33.866 20.841-37.709s26.873-8.5 34.516-13.727 16.357-10.447 33.5-.74c6.766 4.772 11.81 7.345 16.81 23.368s9.333 18.181 9.333 27.646-4.644 21.816-12.375 27.184a28.026 28.026 0 0 0 -11.743 17.561c-1.132 5.242-3.507 12.839-9.882 13.711s-9.268-4.572-15.2-5.026-13.149 8.393-29.538-.451-18.119-21.074-24.262-26.54-12-15.394-12-25.277z" fill="#7d6599"/><g fill="#67537e"><path d="m104.66 19.7c-4.79 3.97-12.3 5.59-20 3.72-8.56-2.08-14.93-7.89-16.75-14.42 6.48-3.23 14.59-4.34 27.45 2.94 3.48 2.45 6.5 4.33 9.3 7.76z"/><ellipse cx="81.186" cy="44.573" rx="8.846" ry="11.33" transform="matrix(.236 -.972 .972 .236 18.717 112.951)"/><ellipse cx="95.108" cy="79.168" rx="7.997" ry="6.244" transform="matrix(.707 -.707 .707 .707 -28.124 90.439)"/><ellipse cx="39.411" cy="92.67" rx="5.047" ry="6" transform="matrix(.905 -.426 .426 .905 -35.744 25.642)"/><ellipse cx="61.756" cy="71.861" rx="6.336" ry="4.579" transform="matrix(.905 -.426 .426 .905 -24.741 33.182)"/><path d="m40.062 35.381c-.144 0-.274 0-.392-.008a1.75 1.75 0 1 1 .16-3.5c2.815.113 11.3-1.331 13.588-4.012a1.75 1.75 0 1 1 2.664 2.27c-3.282 3.861-12.782 5.25-16.02 5.25z"/><path d="m20.124 72.875a1.738 1.738 0 0 1 -1.1-.39c-3.463-2.8-3.88-10.26-3.64-12.659a1.75 1.75 0 1 1 3.482.348c-.243 2.44.486 8.073 2.36 9.591a1.75 1.75 0 0 1 -1.1 3.11z"/><path d="m109.834 67.313h-.059a1.751 1.751 0 0 1 -1.691-1.807 35.952 35.952 0 0 0 -1.884-12.706 1.75 1.75 0 0 1 3.262-1.269 39.21 39.21 0 0 1 2.118 14.088 1.751 1.751 0 0 1 -1.746 1.694z"/><path d="m85.348 110.029c-.053 0-.107 0-.161-.008a1.748 1.748 0 0 1 -1.584-1.9c.034-.379.881-9.319 4.952-13.527a1.75 1.75 0 1 1 2.515 2.433c-2.663 2.754-3.777 9.169-3.981 11.409a1.751 1.751 0 0 1 -1.741 1.593z"/><path d="m39.75 67.313a1.732 1.732 0 0 1 -.546-.088 1.751 1.751 0 0 1 -1.117-2.209c1.738-5.286 9.167-10.03 13.076-9.367a1.75 1.75 0 1 1 -.576 3.452c-2-.34-7.878 3.062-9.174 7.008a1.752 1.752 0 0 1 -1.663 1.204z"/></g></svg>